M48
METRIC,TZ
T01C0.900
T02C1.000
%
T01
X2219000Y3000000
X2473000Y3000000
X2727000Y3000000
X2981000Y3000000
X975000Y975000
X1425000Y975000
X975000Y625000
X1425000Y625000
X2375000Y975000
X2825000Y975000
X2375000Y625000
X2825000Y625000
X3775000Y975000
X4225000Y975000
X3775000Y625000
X4225000Y625000
X4150000Y2400000
X4650000Y2400000
X600000Y1300000
X600000Y1500000
X600000Y2850000
X600000Y2600000
X600000Y2350000
X1700000Y2916000
X1700000Y2662000
X1700000Y2408000
X1700000Y2154000
X1700000Y1900000
X1700000Y1646000
X1700000Y1392000
X1700000Y1138000
X1700000Y884000
X3500000Y2916000
X3500000Y2662000
X3500000Y2408000
X3500000Y2154000
X3500000Y1900000
X3500000Y1646000
X3500000Y1392000
X3500000Y1138000
X3500000Y884000
X2473000Y750000
X2727000Y750000
M30
