G04 Layer: Top Copper Layer*
G04 Project: Pocket Companion v2.0 (52.0mm x 38.0mm)*
G04 Standard: RS-274X / JLCPCB Class-2 Manufacturing*
%FSLAX35Y35*%
%MOMM*%
%LPD*%
%ADD10C,0.150*%
%ADD11C,0.300*%
%ADD12C,0.600*%
%ADD13R,1.600X1.600*%
%ADD14C,1.600*%
%ADD15C,2.200*%
%ADD16R,2.200X2.200*%
%ADD17R,1.600X1.600*%
%ADD18R,1.800X1.800*%
%ADD19C,1.000*%
%ADD20C,0.200*%
%ADD21C,2.200*%
%ADD22C,0.400*%

D13*
X2219000Y3000000D03*
D14*
X2473000Y3000000D03*
D14*
X2727000Y3000000D03*
D14*
X2981000Y3000000D03*
D14*
X975000Y975000D03*
D14*
X1425000Y975000D03*
D14*
X975000Y625000D03*
D14*
X1425000Y625000D03*
D14*
X2375000Y975000D03*
D14*
X2825000Y975000D03*
D14*
X2375000Y625000D03*
D14*
X2825000Y625000D03*
D14*
X3775000Y975000D03*
D14*
X4225000Y975000D03*
D14*
X3775000Y625000D03*
D14*
X4225000Y625000D03*
D13*
X4150000Y2400000D03*
D14*
X4650000Y2400000D03*
D13*
X600000Y1300000D03*
D14*
X600000Y1500000D03*
D14*
X600000Y2850000D03*
D14*
X600000Y2600000D03*
D14*
X600000Y2350000D03*
D19*
X400000Y400000D03*
X4800000Y400000D03*
X4800000Y3400000D03*
D12*
X600000Y1300000D02*
X600000Y2350000D01*
X600000Y2600000D02*
X1400000Y2600000D01*
X1700000Y2916000D01*
X1700000Y2408000D02*
X2000000Y2408000D01*
X2473000Y2800000D01*
X2473000Y3000000D01*
D11*
X3775000Y975000D02*
X3775000Y1300000D01*
X3600000Y1600000D01*
X3500000Y1900000D01*
X2600000Y975000D02*
X2600000Y1350000D01*
X3050000Y1550000D01*
X3300000Y1900000D01*
X3500000Y2154000D01*
X3500000Y1646000D02*
X3850000Y1646000D01*
X4150000Y1946000D01*
X4150000Y2400000D01*
M02*
